REM MD5 11f926213d1537a2bf13efdf171e1349
FILE "Dengeki PlayStation D43 (Japan).bin" BINARY
  TRACK 01 MODE2/2352
    INDEX 01 00:00:00
  TRACK 02 AUDIO
    INDEX 00 58:02:28
    INDEX 01 58:04:28
  TRACK 03 AUDIO
    INDEX 00 61:18:21
    INDEX 01 61:20:21
  TRACK 04 AUDIO
    INDEX 00 64:22:60
    INDEX 01 64:24:60
REM LEADOUT 68:21:64
